<svg width="39" height="39" viewBox="0 0 39 39" fill="none" xmlns="http://www.w3.org/2000/svg">
<path d="M37.7792 1.2228C37.7792 1.2228 38.1216 1.92638 38.1644 2.03036C38.2502 2.23808 38.361 2.53032 38.4738 2.89364C38.6984 3.61754 38.9356 4.64048 38.9892 5.85004C39.0976 8.30362 38.4414 11.4867 35.522 14.3912C35.4878 14.4252 35.452 14.4576 35.4146 14.4882L23.63 24.1432L18.447 28.6102L19.1098 35.8992C19.1728 36.5924 18.7506 37.2378 18.0902 37.458L13.695 38.923C12.9668 39.1656 12.1728 38.8194 11.8552 38.1206L8.42532 30.5754L0.879598 27.1456C0.180738 26.828 -0.165522 26.034 0.0772581 25.3058L1.5423 20.9108C1.76244 20.2504 2.40792 19.8284 3.10112 19.8914L10.3906 20.554L14.8574 15.3719L24.4992 3.57564C24.531 3.53684 24.5646 3.49966 24.6 3.46424C27.5116 0.552883 30.6972 -0.0988568 33.1514 0.0114632C34.3614 0.0658632 35.3846 0.303504 36.1084 0.528244C36.4718 0.641024 36.764 0.751883 36.9718 0.837663C37.0758 0.880603 37.7792 1.2228 37.7792 1.2228Z" fill="url(#paint0_linear_295_227)"/>
<path d="M18.8059 5.80012L12.5583 13.4437L11.0985 15.1372L2.92219 10.2192C2.52663 9.98132 2.26263 9.57452 2.20647 9.11636C2.15031 8.65818 2.30823 8.19966 2.63461 7.87324L7.63817 2.86914L18.8059 5.80012Z" fill="url(#paint1_linear_295_227)"/>
<path d="M33.1966 20.1836L25.5588 26.441L23.8632 27.9024L28.78 36.0762C29.018 36.4718 29.4246 36.7356 29.8828 36.7918C30.341 36.848 30.7994 36.6902 31.1258 36.3638L36.1304 31.3604L33.1966 20.1836Z" fill="url(#paint2_linear_295_227)"/>
<defs>
<linearGradient id="paint0_linear_295_227" x1="-1.04726" y1="-3.01779" x2="36.7279" y2="38.3803" gradientUnits="userSpaceOnUse">
<stop stop-color="#DCDCDC"/>
<stop offset="1" stop-color="#424242"/>
</linearGradient>
<linearGradient id="paint1_linear_295_227" x1="1.74928" y1="1.91985" x2="12.8094" y2="18.3312" gradientUnits="userSpaceOnUse">
<stop stop-color="#DCDCDC"/>
<stop offset="1" stop-color="#424242"/>
</linearGradient>
<linearGradient id="paint2_linear_295_227" x1="23.5338" y1="18.8976" x2="39.3419" y2="31.6851" gradientUnits="userSpaceOnUse">
<stop stop-color="#DCDCDC"/>
<stop offset="1" stop-color="#424242"/>
</linearGradient>
</defs>
</svg>
