<svg width="118" height="20" viewBox="0 0 118 20" fill="none" xmlns="http://www.w3.org/2000/svg">
<path d="M10.1393 15.8792L16.4053 19.758L14.7425 12.4476L20.2785 7.52891L12.9884 6.89458L10.1393 0.00012207L7.29014 6.89458L0 7.52891L5.53604 12.4476L3.8732 19.758L10.1393 15.8792Z" fill="#FFA601"/>
<path d="M34.4737 15.8791L40.7398 19.7579L39.077 12.4475L44.613 7.52878L37.3229 6.89445L34.4737 0L31.6246 6.89445L24.3345 7.52878L29.8705 12.4475L28.2077 19.7579L34.4737 15.8791Z" fill="#FFA601"/>
<path d="M58.8077 15.8791L65.0738 19.7579L63.411 12.4475L68.947 7.52878L61.6569 6.89445L58.8077 0L55.9586 6.89445L48.6685 7.52878L54.2045 12.4475L52.5417 19.7579L58.8077 15.8791Z" fill="#FFA601"/>
<path d="M83.1422 15.8791L89.4083 19.7579L87.7454 12.4475L93.2815 7.52878L85.9913 6.89445L83.1422 0L80.2931 6.89445L73.0029 7.52878L78.539 12.4475L76.8761 19.7579L83.1422 15.8791Z" fill="#FFA601"/>
<path d="M107.476 15.8791L113.742 19.7579L112.079 12.4475L117.615 7.52878L110.325 6.89445L107.476 0L104.627 6.89445L97.3369 7.52878L102.873 12.4475L101.21 19.7579L107.476 15.8791Z" fill="#FFA601"/>
</svg>
