<svg width="17" height="18" viewBox="0 0 17 18" fill="none" xmlns="http://www.w3.org/2000/svg">
<path d="M14.9092 7.27634H9.76813V1.67916C9.76813 1.23382 9.60563 0.806716 9.31639 0.491813C9.02714 0.176911 8.63484 0 8.22579 0C7.81674 0 7.42444 0.176911 7.13519 0.491813C6.84595 0.806716 6.68345 1.23382 6.68345 1.67916V7.27634H1.54234C1.13328 7.27634 0.740984 7.45325 0.45174 7.76815C0.162496 8.08306 0 8.51016 0 8.9555C0 9.40084 0.162496 9.82794 0.45174 10.1428C0.740984 10.4577 1.13328 10.6347 1.54234 10.6347H6.68345V16.2318C6.68345 16.6772 6.84595 17.1043 7.13519 17.4192C7.42444 17.7341 7.81674 17.911 8.22579 17.911C8.63484 17.911 9.02714 17.7341 9.31639 17.4192C9.60563 17.1043 9.76813 16.6772 9.76813 16.2318V10.6347H14.9092C15.3183 10.6347 15.7106 10.4577 15.9998 10.1428C16.2891 9.82794 16.4516 9.40084 16.4516 8.9555C16.4516 8.51016 16.2891 8.08306 15.9998 7.76815C15.7106 7.45325 15.3183 7.27634 14.9092 7.27634Z" fill="#687684"/>
</svg>
