<svg width="118" height="20" viewBox="0 0 118 20" fill="none" xmlns="http://www.w3.org/2000/svg">
<path d="M10.1469 15.8791L16.4177 19.7579L14.7537 12.4475L20.2939 7.52878L12.9982 6.89445L10.1469 0L7.29565 6.89445L0 7.52878L5.54023 12.4475L3.87613 19.7579L10.1469 15.8791Z" fill="#FFA601"/>
<path d="M34.4996 15.8791L40.7704 19.7579L39.1063 12.4475L44.6465 7.52878L37.3509 6.89445L34.4996 0L31.6483 6.89445L24.3527 7.52878L29.8929 12.4475L28.2288 19.7579L34.4996 15.8791Z" fill="#FFA601"/>
<path d="M58.8523 15.8791L65.1231 19.7579L63.459 12.4475L68.9992 7.52878L61.7036 6.89445L58.8523 0L56.001 6.89445L48.7053 7.52878L54.2456 12.4475L52.5815 19.7579L58.8523 15.8791Z" fill="#FFA601"/>
<path d="M83.2049 15.8791L89.4757 19.7579L87.8116 12.4475L93.3519 7.52878L86.0562 6.89445L83.2049 0L80.3536 6.89445L73.058 7.52878L78.5982 12.4475L76.9341 19.7579L83.2049 15.8791Z" fill="#989898"/>
<path d="M107.557 15.8791L113.828 19.7579L112.164 12.4475L117.704 7.52878L110.409 6.89445L107.557 0L104.706 6.89445L97.4105 7.52878L102.951 12.4475L101.287 19.7579L107.557 15.8791Z" fill="#989898"/>
</svg>
