<svg width="118" height="20" viewBox="0 0 118 20" fill="none" xmlns="http://www.w3.org/2000/svg">
<path d="M10.1393 15.8791L16.4053 19.7579L14.7425 12.4475L20.2785 7.52878L12.9884 6.89445L10.1393 0L7.29014 6.89445L0 7.52878L5.53604 12.4475L3.8732 19.7579L10.1393 15.8791Z" fill="#FFA601"/>
<path d="M34.4736 15.8791L40.7396 19.7579L39.0768 12.4475L44.6128 7.52878L37.3227 6.89445L34.4736 0L31.6244 6.89445L24.3343 7.52878L29.8703 12.4475L28.2075 19.7579L34.4736 15.8791Z" fill="#FFA601"/>
<path d="M58.8078 15.8791L65.0739 19.7579L63.411 12.4475L68.9471 7.52878L61.6569 6.89445L58.8078 0L55.9587 6.89445L48.6685 7.52878L54.2046 12.4475L52.5417 19.7579L58.8078 15.8791Z" fill="#FFA601"/>
<path d="M83.142 15.8791L89.4081 19.7579L87.7452 12.4475L93.2813 7.52878L85.9912 6.89445L83.142 0L80.2929 6.89445L73.0027 7.52878L78.5388 12.4475L76.8759 19.7579L83.142 15.8791Z" fill="#FFA601"/>
<path d="M107.476 15.8791L113.742 19.7579L112.079 12.4475L117.616 7.52878L110.325 6.89445L107.476 0L104.627 6.89445L97.337 7.52878L102.873 12.4475L101.21 19.7579L107.476 15.8791Z" fill="#FFA601"/>
</svg>
