<svg width="31" height="33" viewBox="0 0 31 33" fill="none" xmlns="http://www.w3.org/2000/svg">
<path d="M30.9352 15.8636C30.9352 24.6251 24.0103 31.7272 15.4676 31.7272C6.92514 31.7272 0 24.6251 0 15.8636C0 7.10245 6.92514 0 15.4676 0C24.0103 0 30.9352 7.10245 30.9352 15.8636Z" fill="white"/>
<path d="M21.6545 8.24902L12.374 17.7672L8.50708 13.8013L5.22021 17.1326L9.08711 21.0985L12.1806 24.2712L12.374 24.4298L24.9414 11.5803L21.6545 8.24902Z" fill="#1BAC72"/>
<path d="M15.4657 32.8845C24.0072 32.8845 30.9314 25.783 30.9314 17.0228C30.9314 8.26264 24.0072 1.16113 15.4657 1.16113C6.92423 1.16113 0 8.26264 0 17.0228C0 25.783 6.92423 32.8845 15.4657 32.8845Z" fill="#D7D7D7"/>
<path d="M21.5039 11.6074L10.1862 23.2149" stroke="#494949" stroke-width="3.48225" stroke-linecap="round" stroke-linejoin="round"/>
<path d="M10.1862 11.6074L21.5039 23.2149" stroke="#494949" stroke-width="3.48225" stroke-linecap="round" stroke-linejoin="round"/>
</svg>
